<?xml version="1.0" encoding="UTF-8" standalone="no"?>
<svg
   xmlns:dc="http://purl.org/dc/elements/1.1/"
   xmlns:cc="http://creativecommons.org/ns#"
   xmlns:rdf="http://www.w3.org/1999/02/22-rdf-syntax-ns#"
   xmlns:svg="http://www.w3.org/2000/svg"
   xmlns="http://www.w3.org/2000/svg"
   id="svg8"
   version="1.1"
   viewBox="0 0 113.77083 18.520834"
   height="70"
   width="430">
  <defs
     id="defs2" />
  <metadata
     id="metadata5">
    <rdf:RDF>
      <cc:Work
         rdf:about="">
        <dc:format>image/svg+xml</dc:format>
        <dc:type
           rdf:resource="http://purl.org/dc/dcmitype/StillImage" />
        <dc:title></dc:title>
      </cc:Work>
    </rdf:RDF>
  </metadata>
  <g
     transform="translate(0,-278.47915)"
     id="layer1">
    <path
       id="rect815"
       d="M 2.3578855,282.69986 H 47.823277 c 0.524747,0 0.947196,0.42245 0.947196,0.9472 v 8.71419 c 0,0.52474 -0.422449,0.94719 -0.947196,0.94719 H 2.3578855 c -0.5247464,0 -0.9471957,-0.42245 -0.9471957,-0.94719 v -8.71419 c 0,-0.52475 0.4224493,-0.9472 0.9471957,-0.9472 z"
       style="opacity:1;vector-effect:none;fill:none;fill-opacity:1;stroke:#000000;stroke-width:0.26458332;stroke-linecap:round;stroke-linejoin:round;stroke-miterlimit:4;stroke-dasharray:none;stroke-dashoffset:0;stroke-opacity:1" />
    <path
       id="rect815-6"
       d="m 51.801497,282.69986 h 45.465392 c 0.524746,0 0.947196,0.42245 0.947196,0.9472 v 8.71419 c 0,0.52474 -0.42245,0.94719 -0.947196,0.94719 H 51.801497 c -0.524746,0 -0.947196,-0.42245 -0.947196,-0.94719 v -8.71419 c 0,-0.52475 0.42245,-0.9472 0.947196,-0.9472 z"
       style="opacity:1;vector-effect:none;fill:none;fill-opacity:1;stroke:#000000;stroke-width:0.26458332;stroke-linecap:round;stroke-linejoin:round;stroke-miterlimit:4;stroke-dasharray:none;stroke-dashoffset:0;stroke-opacity:1" />
    <g
       id="flowRoot847"
       style="font-style:normal;font-variant:normal;font-weight:normal;font-stretch:normal;font-size:37.33333206px;line-height:1.25;font-family:'Gentium Plus';-inkscape-font-specification:'Gentium Plus';letter-spacing:0px;word-spacing:0px;fill:#000000;fill-opacity:1;stroke:none"
       transform="matrix(0.26458333,0,0,0.26458333,-4.6609182,262.08414)"
       aria-label="xxxx xxxx">
      <path
         id="path830"
         style="text-align:center;text-anchor:middle"
         d="m 44.233075,108.44206 v -0.78386 q 0.455729,-0.0365 0.856771,-0.10937 0.401042,-0.0729 0.619792,-0.23698 0.236979,-0.16406 0.236979,-0.45573 0,-0.3099 -0.364583,-0.80208 l -3.609375,-4.90365 -3.445313,4.90365 q -0.346354,0.49218 -0.273437,0.80208 0.07292,0.29167 0.382812,0.45573 0.309896,0.16406 0.765625,0.23698 0.473959,0.0729 0.911459,0.10937 v 0.78386 h -6.908854 v -0.78386 q 0.729166,-0.10937 1.239583,-0.27344 0.510417,-0.18229 0.856771,-0.40104 0.364583,-0.23698 0.601562,-0.49218 0.255209,-0.27344 0.455729,-0.54688 l 4.429688,-6.161458 -4.283854,-5.869791 q -0.236979,-0.328125 -0.473959,-0.601563 -0.236979,-0.291666 -0.583333,-0.492187 -0.328125,-0.21875 -0.820312,-0.346354 -0.492188,-0.145834 -1.221355,-0.200521 v -0.783854 h 7.65625 v 0.783854 q -0.565104,0.05469 -0.984375,0.164062 -0.401041,0.09115 -0.619791,0.273438 -0.200521,0.164062 -0.182292,0.455729 0.03646,0.273438 0.364583,0.710938 l 2.934896,4.046874 2.807292,-4.046874 q 0.328125,-0.4375 0.364583,-0.729167 0.03646,-0.291667 -0.164063,-0.455729 -0.182291,-0.182292 -0.583333,-0.273438 -0.401042,-0.09115 -0.966146,-0.145833 v -0.783854 h 6.945313 v 0.783854 q -1.476563,0.109375 -2.296875,0.546875 -0.802084,0.419271 -1.276042,1.09375 l -3.828125,5.377604 4.867187,6.653645 q 0.21875,0.27344 0.473959,0.54688 0.255208,0.2552 0.583333,0.49218 0.346354,0.23698 0.802083,0.41927 0.45573,0.1823 1.057292,0.25521 v 0.78386 z" />
      <path
         id="path832"
         style="text-align:center;text-anchor:middle"
         d="m 63.045575,108.44206 v -0.78386 q 0.455729,-0.0365 0.856771,-0.10937 0.401042,-0.0729 0.619792,-0.23698 0.236979,-0.16406 0.236979,-0.45573 0,-0.3099 -0.364583,-0.80208 l -3.609375,-4.90365 -3.445313,4.90365 q -0.346354,0.49218 -0.273437,0.80208 0.07292,0.29167 0.382812,0.45573 0.309896,0.16406 0.765625,0.23698 0.473959,0.0729 0.911459,0.10937 v 0.78386 h -6.908854 v -0.78386 q 0.729166,-0.10937 1.239583,-0.27344 0.510417,-0.18229 0.856771,-0.40104 0.364583,-0.23698 0.601562,-0.49218 0.255209,-0.27344 0.455729,-0.54688 l 4.429688,-6.161458 -4.283854,-5.869791 q -0.236979,-0.328125 -0.473959,-0.601563 -0.236979,-0.291666 -0.583333,-0.492187 -0.328125,-0.21875 -0.820312,-0.346354 -0.492188,-0.145834 -1.221355,-0.200521 v -0.783854 h 7.65625 v 0.783854 q -0.565104,0.05469 -0.984375,0.164062 -0.401041,0.09115 -0.619791,0.273438 -0.200521,0.164062 -0.182292,0.455729 0.03646,0.273438 0.364583,0.710938 l 2.934896,4.046874 2.807292,-4.046874 q 0.328125,-0.4375 0.364583,-0.729167 0.03646,-0.291667 -0.164063,-0.455729 -0.182291,-0.182292 -0.583333,-0.273438 -0.401042,-0.09115 -0.966146,-0.145833 v -0.783854 h 6.945313 v 0.783854 q -1.476563,0.109375 -2.296875,0.546875 -0.802084,0.419271 -1.276042,1.09375 l -3.828125,5.377604 4.867187,6.653645 q 0.21875,0.27344 0.473959,0.54688 0.255208,0.2552 0.583333,0.49218 0.346354,0.23698 0.802083,0.41927 0.45573,0.1823 1.057292,0.25521 v 0.78386 z" />
      <path
         id="path834"
         style="text-align:center;text-anchor:middle"
         d="m 81.858075,108.44206 v -0.78386 q 0.455729,-0.0365 0.856771,-0.10937 0.401042,-0.0729 0.619792,-0.23698 0.236979,-0.16406 0.236979,-0.45573 0,-0.3099 -0.364583,-0.80208 l -3.609375,-4.90365 -3.445313,4.90365 q -0.346354,0.49218 -0.273437,0.80208 0.07292,0.29167 0.382812,0.45573 0.309896,0.16406 0.765625,0.23698 0.473959,0.0729 0.911459,0.10937 v 0.78386 h -6.908854 v -0.78386 q 0.729166,-0.10937 1.239583,-0.27344 0.510417,-0.18229 0.856771,-0.40104 0.364583,-0.23698 0.601562,-0.49218 0.255209,-0.27344 0.455729,-0.54688 l 4.429688,-6.161458 -4.283854,-5.869791 q -0.236979,-0.328125 -0.473959,-0.601563 -0.236979,-0.291666 -0.583333,-0.492187 -0.328125,-0.21875 -0.820312,-0.346354 -0.492188,-0.145834 -1.221355,-0.200521 v -0.783854 h 7.65625 v 0.783854 q -0.565104,0.05469 -0.984375,0.164062 -0.401041,0.09115 -0.619791,0.273438 -0.200521,0.164062 -0.182292,0.455729 0.03646,0.273438 0.364583,0.710938 l 2.934896,4.046874 2.807292,-4.046874 q 0.328125,-0.4375 0.364583,-0.729167 0.03646,-0.291667 -0.164063,-0.455729 -0.182291,-0.182292 -0.583333,-0.273438 -0.401042,-0.09115 -0.966146,-0.145833 v -0.783854 h 6.945313 v 0.783854 q -1.476563,0.109375 -2.296875,0.546875 -0.802084,0.419271 -1.276042,1.09375 l -3.828125,5.377604 4.867187,6.653645 q 0.21875,0.27344 0.473959,0.54688 0.255208,0.2552 0.583333,0.49218 0.346354,0.23698 0.802083,0.41927 0.45573,0.1823 1.057292,0.25521 v 0.78386 z" />
      <path
         id="path836"
         style="text-align:center;text-anchor:middle"
         d="m 100.67058,108.44206 v -0.78386 q 0.45572,-0.0365 0.85677,-0.10937 0.40104,-0.0729 0.61979,-0.23698 0.23698,-0.16406 0.23698,-0.45573 0,-0.3099 -0.36459,-0.80208 l -3.609371,-4.90365 -3.445313,4.90365 q -0.346354,0.49218 -0.273437,0.80208 0.07292,0.29167 0.382812,0.45573 0.309896,0.16406 0.765625,0.23698 0.473959,0.0729 0.911459,0.10937 v 0.78386 h -6.908854 v -0.78386 q 0.729166,-0.10937 1.239583,-0.27344 0.510417,-0.18229 0.856771,-0.40104 0.364583,-0.23698 0.601562,-0.49218 0.255209,-0.27344 0.455729,-0.54688 l 4.429688,-6.161458 -4.283854,-5.869791 q -0.236979,-0.328125 -0.473959,-0.601563 -0.236979,-0.291666 -0.583333,-0.492187 -0.328125,-0.21875 -0.820312,-0.346354 -0.492188,-0.145834 -1.221355,-0.200521 v -0.783854 h 7.65625 v 0.783854 q -0.565104,0.05469 -0.984375,0.164062 -0.401041,0.09115 -0.619791,0.273438 -0.200521,0.164062 -0.182292,0.455729 0.03646,0.273438 0.364583,0.710938 l 2.934896,4.046874 2.807288,-4.046874 q 0.32813,-0.4375 0.36459,-0.729167 0.0365,-0.291667 -0.16407,-0.455729 -0.18229,-0.182292 -0.58333,-0.273438 -0.40104,-0.09115 -0.96614,-0.145833 v -0.783854 h 6.94531 v 0.783854 q -1.47656,0.109375 -2.29688,0.546875 -0.80208,0.419271 -1.27604,1.09375 l -3.82812,5.377604 4.86718,6.653645 q 0.21875,0.27344 0.47396,0.54688 0.25521,0.2552 0.58334,0.49218 0.34635,0.23698 0.80208,0.41927 0.45573,0.1823 1.05729,0.25521 v 0.78386 z" />
      <path
         id="path838"
         style="text-align:center;text-anchor:middle"
         d="m 127.72266,108.44206 v -0.78386 q 0.45573,-0.0365 0.85677,-0.10937 0.40104,-0.0729 0.61979,-0.23698 0.23698,-0.16406 0.23698,-0.45573 0,-0.3099 -0.36458,-0.80208 l -3.60938,-4.90365 -3.44531,4.90365 q -0.34635,0.49218 -0.27344,0.80208 0.0729,0.29167 0.38282,0.45573 0.30989,0.16406 0.76562,0.23698 0.47396,0.0729 0.91146,0.10937 v 0.78386 h -6.90885 v -0.78386 q 0.72916,-0.10937 1.23958,-0.27344 0.51042,-0.18229 0.85677,-0.40104 0.36458,-0.23698 0.60156,-0.49218 0.25521,-0.27344 0.45573,-0.54688 l 4.42969,-6.161458 -4.28385,-5.869791 q -0.23698,-0.328125 -0.47396,-0.601563 -0.23698,-0.291666 -0.58334,-0.492187 -0.32812,-0.21875 -0.82031,-0.346354 -0.49219,-0.145834 -1.22135,-0.200521 v -0.783854 h 7.65625 v 0.783854 q -0.56511,0.05469 -0.98438,0.164062 -0.40104,0.09115 -0.61979,0.273438 -0.20052,0.164062 -0.18229,0.455729 0.0365,0.273438 0.36458,0.710938 l 2.9349,4.046874 2.80729,-4.046874 q 0.32812,-0.4375 0.36458,-0.729167 0.0365,-0.291667 -0.16406,-0.455729 -0.18229,-0.182292 -0.58333,-0.273438 -0.40104,-0.09115 -0.96615,-0.145833 v -0.783854 h 6.94531 v 0.783854 q -1.47656,0.109375 -2.29687,0.546875 -0.80208,0.419271 -1.27604,1.09375 l -3.82813,5.377604 4.86719,6.653645 q 0.21875,0.27344 0.47396,0.54688 0.25521,0.2552 0.58333,0.49218 0.34636,0.23698 0.80208,0.41927 0.45573,0.1823 1.0573,0.25521 v 0.78386 z" />
      <path
         id="path840"
         style="text-align:center;text-anchor:middle"
         d="m 146.53516,108.44206 v -0.78386 q 0.45573,-0.0365 0.85677,-0.10937 0.40104,-0.0729 0.61979,-0.23698 0.23698,-0.16406 0.23698,-0.45573 0,-0.3099 -0.36458,-0.80208 l -3.60938,-4.90365 -3.44531,4.90365 q -0.34635,0.49218 -0.27344,0.80208 0.0729,0.29167 0.38282,0.45573 0.30989,0.16406 0.76562,0.23698 0.47396,0.0729 0.91146,0.10937 v 0.78386 h -6.90885 v -0.78386 q 0.72916,-0.10937 1.23958,-0.27344 0.51042,-0.18229 0.85677,-0.40104 0.36458,-0.23698 0.60156,-0.49218 0.25521,-0.27344 0.45573,-0.54688 l 4.42969,-6.161458 -4.28385,-5.869791 q -0.23698,-0.328125 -0.47396,-0.601563 -0.23698,-0.291666 -0.58334,-0.492187 -0.32812,-0.21875 -0.82031,-0.346354 -0.49219,-0.145834 -1.22135,-0.200521 v -0.783854 h 7.65625 v 0.783854 q -0.56511,0.05469 -0.98438,0.164062 -0.40104,0.09115 -0.61979,0.273438 -0.20052,0.164062 -0.18229,0.455729 0.0365,0.273438 0.36458,0.710938 l 2.9349,4.046874 2.80729,-4.046874 q 0.32812,-0.4375 0.36458,-0.729167 0.0365,-0.291667 -0.16406,-0.455729 -0.18229,-0.182292 -0.58333,-0.273438 -0.40104,-0.09115 -0.96615,-0.145833 v -0.783854 h 6.94531 v 0.783854 q -1.47656,0.109375 -2.29687,0.546875 -0.80208,0.419271 -1.27604,1.09375 l -3.82813,5.377604 4.86719,6.653645 q 0.21875,0.27344 0.47396,0.54688 0.25521,0.2552 0.58333,0.49218 0.34636,0.23698 0.80208,0.41927 0.45573,0.1823 1.0573,0.25521 v 0.78386 z" />
      <path
         id="path842"
         style="text-align:center;text-anchor:middle"
         d="m 165.34766,108.44206 v -0.78386 q 0.45573,-0.0365 0.85677,-0.10937 0.40104,-0.0729 0.61979,-0.23698 0.23698,-0.16406 0.23698,-0.45573 0,-0.3099 -0.36458,-0.80208 l -3.60938,-4.90365 -3.44531,4.90365 q -0.34635,0.49218 -0.27344,0.80208 0.0729,0.29167 0.38282,0.45573 0.30989,0.16406 0.76562,0.23698 0.47396,0.0729 0.91146,0.10937 v 0.78386 h -6.90885 v -0.78386 q 0.72916,-0.10937 1.23958,-0.27344 0.51042,-0.18229 0.85677,-0.40104 0.36458,-0.23698 0.60156,-0.49218 0.25521,-0.27344 0.45573,-0.54688 l 4.42969,-6.161458 -4.28385,-5.869791 q -0.23698,-0.328125 -0.47396,-0.601563 -0.23698,-0.291666 -0.58334,-0.492187 -0.32812,-0.21875 -0.82031,-0.346354 -0.49219,-0.145834 -1.22135,-0.200521 v -0.783854 h 7.65625 v 0.783854 q -0.56511,0.05469 -0.98438,0.164062 -0.40104,0.09115 -0.61979,0.273438 -0.20052,0.164062 -0.18229,0.455729 0.0365,0.273438 0.36458,0.710938 l 2.9349,4.046874 2.80729,-4.046874 q 0.32812,-0.4375 0.36458,-0.729167 0.0365,-0.291667 -0.16406,-0.455729 -0.18229,-0.182292 -0.58333,-0.273438 -0.40104,-0.09115 -0.96615,-0.145833 v -0.783854 h 6.94531 v 0.783854 q -1.47656,0.109375 -2.29687,0.546875 -0.80208,0.419271 -1.27604,1.09375 l -3.82813,5.377604 4.86719,6.653645 q 0.21875,0.27344 0.47396,0.54688 0.25521,0.2552 0.58333,0.49218 0.34636,0.23698 0.80208,0.41927 0.45573,0.1823 1.0573,0.25521 v 0.78386 z" />
      <path
         id="path844"
         style="text-align:center;text-anchor:middle"
         d="m 184.16015,108.44206 v -0.78386 q 0.45573,-0.0365 0.85677,-0.10937 0.40105,-0.0729 0.6198,-0.23698 0.23698,-0.16406 0.23698,-0.45573 0,-0.3099 -0.36459,-0.80208 l -3.60937,-4.90365 -3.44532,4.90365 q -0.34635,0.49218 -0.27343,0.80208 0.0729,0.29167 0.38281,0.45573 0.3099,0.16406 0.76562,0.23698 0.47396,0.0729 0.91146,0.10937 v 0.78386 h -6.90885 v -0.78386 q 0.72917,-0.10937 1.23958,-0.27344 0.51042,-0.18229 0.85677,-0.40104 0.36459,-0.23698 0.60157,-0.49218 0.2552,-0.27344 0.45572,-0.54688 l 4.42969,-6.161458 -4.28385,-5.869791 q -0.23698,-0.328125 -0.47396,-0.601563 -0.23698,-0.291666 -0.58333,-0.492187 -0.32813,-0.21875 -0.82032,-0.346354 -0.49218,-0.145834 -1.22135,-0.200521 v -0.783854 h 7.65625 v 0.783854 q -0.5651,0.05469 -0.98438,0.164062 -0.40104,0.09115 -0.61979,0.273438 -0.20052,0.164062 -0.18229,0.455729 0.0365,0.273438 0.36458,0.710938 l 2.9349,4.046874 2.80729,-4.046874 q 0.32813,-0.4375 0.36459,-0.729167 0.0364,-0.291667 -0.16407,-0.455729 -0.18229,-0.182292 -0.58333,-0.273438 -0.40104,-0.09115 -0.96615,-0.145833 v -0.783854 h 6.94532 v 0.783854 q -1.47657,0.109375 -2.29688,0.546875 -0.80208,0.419271 -1.27604,1.09375 l -3.82813,5.377604 4.86719,6.653645 q 0.21875,0.27344 0.47396,0.54688 0.25521,0.2552 0.58333,0.49218 0.34636,0.23698 0.80209,0.41927 0.45573,0.1823 1.05729,0.25521 v 0.78386 z" />
    </g>
    <g
       id="flowRoot847-7"
       style="font-style:normal;font-variant:normal;font-weight:normal;font-stretch:normal;font-size:37.33333206px;line-height:1.25;font-family:'Gentium Plus';-inkscape-font-specification:'Gentium Plus';letter-spacing:0px;word-spacing:0px;fill:#000000;fill-opacity:1;stroke:none"
       transform="matrix(0.26458333,0,0,0.26458333,44.782695,262.08414)"
       aria-label="xxxx xxxx">
      <path
         id="path847"
         style="text-align:center;text-anchor:middle"
         d="m 44.233075,108.44206 v -0.78386 q 0.455729,-0.0365 0.856771,-0.10937 0.401042,-0.0729 0.619792,-0.23698 0.236979,-0.16406 0.236979,-0.45573 0,-0.3099 -0.364583,-0.80208 l -3.609375,-4.90365 -3.445313,4.90365 q -0.346354,0.49218 -0.273437,0.80208 0.07292,0.29167 0.382812,0.45573 0.309896,0.16406 0.765625,0.23698 0.473959,0.0729 0.911459,0.10937 v 0.78386 h -6.908854 v -0.78386 q 0.729166,-0.10937 1.239583,-0.27344 0.510417,-0.18229 0.856771,-0.40104 0.364583,-0.23698 0.601562,-0.49218 0.255209,-0.27344 0.455729,-0.54688 l 4.429688,-6.161458 -4.283854,-5.869791 q -0.236979,-0.328125 -0.473959,-0.601563 -0.236979,-0.291666 -0.583333,-0.492187 -0.328125,-0.21875 -0.820312,-0.346354 -0.492188,-0.145834 -1.221355,-0.200521 v -0.783854 h 7.65625 v 0.783854 q -0.565104,0.05469 -0.984375,0.164062 -0.401041,0.09115 -0.619791,0.273438 -0.200521,0.164062 -0.182292,0.455729 0.03646,0.273438 0.364583,0.710938 l 2.934896,4.046874 2.807292,-4.046874 q 0.328125,-0.4375 0.364583,-0.729167 0.03646,-0.291667 -0.164063,-0.455729 -0.182291,-0.182292 -0.583333,-0.273438 -0.401042,-0.09115 -0.966146,-0.145833 v -0.783854 h 6.945313 v 0.783854 q -1.476563,0.109375 -2.296875,0.546875 -0.802084,0.419271 -1.276042,1.09375 l -3.828125,5.377604 4.867187,6.653645 q 0.21875,0.27344 0.473959,0.54688 0.255208,0.2552 0.583333,0.49218 0.346354,0.23698 0.802083,0.41927 0.45573,0.1823 1.057292,0.25521 v 0.78386 z" />
      <path
         id="path849"
         style="text-align:center;text-anchor:middle"
         d="m 63.045575,108.44206 v -0.78386 q 0.455729,-0.0365 0.856771,-0.10937 0.401042,-0.0729 0.619792,-0.23698 0.236979,-0.16406 0.236979,-0.45573 0,-0.3099 -0.364583,-0.80208 l -3.609375,-4.90365 -3.445313,4.90365 q -0.346354,0.49218 -0.273437,0.80208 0.07292,0.29167 0.382812,0.45573 0.309896,0.16406 0.765625,0.23698 0.473959,0.0729 0.911459,0.10937 v 0.78386 h -6.908854 v -0.78386 q 0.729166,-0.10937 1.239583,-0.27344 0.510417,-0.18229 0.856771,-0.40104 0.364583,-0.23698 0.601562,-0.49218 0.255209,-0.27344 0.455729,-0.54688 l 4.429688,-6.161458 -4.283854,-5.869791 q -0.236979,-0.328125 -0.473959,-0.601563 -0.236979,-0.291666 -0.583333,-0.492187 -0.328125,-0.21875 -0.820312,-0.346354 -0.492188,-0.145834 -1.221355,-0.200521 v -0.783854 h 7.65625 v 0.783854 q -0.565104,0.05469 -0.984375,0.164062 -0.401041,0.09115 -0.619791,0.273438 -0.200521,0.164062 -0.182292,0.455729 0.03646,0.273438 0.364583,0.710938 l 2.934896,4.046874 2.807292,-4.046874 q 0.328125,-0.4375 0.364583,-0.729167 0.03646,-0.291667 -0.164063,-0.455729 -0.182291,-0.182292 -0.583333,-0.273438 -0.401042,-0.09115 -0.966146,-0.145833 v -0.783854 h 6.945313 v 0.783854 q -1.476563,0.109375 -2.296875,0.546875 -0.802084,0.419271 -1.276042,1.09375 l -3.828125,5.377604 4.867187,6.653645 q 0.21875,0.27344 0.473959,0.54688 0.255208,0.2552 0.583333,0.49218 0.346354,0.23698 0.802083,0.41927 0.45573,0.1823 1.057292,0.25521 v 0.78386 z" />
      <path
         id="path851"
         style="text-align:center;text-anchor:middle"
         d="m 81.858075,108.44206 v -0.78386 q 0.455729,-0.0365 0.856771,-0.10937 0.401042,-0.0729 0.619792,-0.23698 0.236979,-0.16406 0.236979,-0.45573 0,-0.3099 -0.364583,-0.80208 l -3.609375,-4.90365 -3.445313,4.90365 q -0.346354,0.49218 -0.273437,0.80208 0.07292,0.29167 0.382812,0.45573 0.309896,0.16406 0.765625,0.23698 0.473959,0.0729 0.911459,0.10937 v 0.78386 h -6.908854 v -0.78386 q 0.729166,-0.10937 1.239583,-0.27344 0.510417,-0.18229 0.856771,-0.40104 0.364583,-0.23698 0.601562,-0.49218 0.255209,-0.27344 0.455729,-0.54688 l 4.429688,-6.161458 -4.283854,-5.869791 q -0.236979,-0.328125 -0.473959,-0.601563 -0.236979,-0.291666 -0.583333,-0.492187 -0.328125,-0.21875 -0.820312,-0.346354 -0.492188,-0.145834 -1.221355,-0.200521 v -0.783854 h 7.65625 v 0.783854 q -0.565104,0.05469 -0.984375,0.164062 -0.401041,0.09115 -0.619791,0.273438 -0.200521,0.164062 -0.182292,0.455729 0.03646,0.273438 0.364583,0.710938 l 2.934896,4.046874 2.807292,-4.046874 q 0.328125,-0.4375 0.364583,-0.729167 0.03646,-0.291667 -0.164063,-0.455729 -0.182291,-0.182292 -0.583333,-0.273438 -0.401042,-0.09115 -0.966146,-0.145833 v -0.783854 h 6.945313 v 0.783854 q -1.476563,0.109375 -2.296875,0.546875 -0.802084,0.419271 -1.276042,1.09375 l -3.828125,5.377604 4.867187,6.653645 q 0.21875,0.27344 0.473959,0.54688 0.255208,0.2552 0.583333,0.49218 0.346354,0.23698 0.802083,0.41927 0.45573,0.1823 1.057292,0.25521 v 0.78386 z" />
      <path
         id="path853"
         style="text-align:center;text-anchor:middle"
         d="m 100.67058,108.44206 v -0.78386 q 0.45572,-0.0365 0.85677,-0.10937 0.40104,-0.0729 0.61979,-0.23698 0.23698,-0.16406 0.23698,-0.45573 0,-0.3099 -0.36459,-0.80208 l -3.609371,-4.90365 -3.445313,4.90365 q -0.346354,0.49218 -0.273437,0.80208 0.07292,0.29167 0.382812,0.45573 0.309896,0.16406 0.765625,0.23698 0.473959,0.0729 0.911459,0.10937 v 0.78386 h -6.908854 v -0.78386 q 0.729166,-0.10937 1.239583,-0.27344 0.510417,-0.18229 0.856771,-0.40104 0.364583,-0.23698 0.601562,-0.49218 0.255209,-0.27344 0.455729,-0.54688 l 4.429688,-6.161458 -4.283854,-5.869791 q -0.236979,-0.328125 -0.473959,-0.601563 -0.236979,-0.291666 -0.583333,-0.492187 -0.328125,-0.21875 -0.820312,-0.346354 -0.492188,-0.145834 -1.221355,-0.200521 v -0.783854 h 7.65625 v 0.783854 q -0.565104,0.05469 -0.984375,0.164062 -0.401041,0.09115 -0.619791,0.273438 -0.200521,0.164062 -0.182292,0.455729 0.03646,0.273438 0.364583,0.710938 l 2.934896,4.046874 2.807288,-4.046874 q 0.32813,-0.4375 0.36459,-0.729167 0.0365,-0.291667 -0.16407,-0.455729 -0.18229,-0.182292 -0.58333,-0.273438 -0.40104,-0.09115 -0.96614,-0.145833 v -0.783854 h 6.94531 v 0.783854 q -1.47656,0.109375 -2.29688,0.546875 -0.80208,0.419271 -1.27604,1.09375 l -3.82812,5.377604 4.86718,6.653645 q 0.21875,0.27344 0.47396,0.54688 0.25521,0.2552 0.58334,0.49218 0.34635,0.23698 0.80208,0.41927 0.45573,0.1823 1.05729,0.25521 v 0.78386 z" />
      <path
         id="path855"
         style="text-align:center;text-anchor:middle"
         d="m 127.72266,108.44206 v -0.78386 q 0.45573,-0.0365 0.85677,-0.10937 0.40104,-0.0729 0.61979,-0.23698 0.23698,-0.16406 0.23698,-0.45573 0,-0.3099 -0.36458,-0.80208 l -3.60938,-4.90365 -3.44531,4.90365 q -0.34635,0.49218 -0.27344,0.80208 0.0729,0.29167 0.38282,0.45573 0.30989,0.16406 0.76562,0.23698 0.47396,0.0729 0.91146,0.10937 v 0.78386 h -6.90885 v -0.78386 q 0.72916,-0.10937 1.23958,-0.27344 0.51042,-0.18229 0.85677,-0.40104 0.36458,-0.23698 0.60156,-0.49218 0.25521,-0.27344 0.45573,-0.54688 l 4.42969,-6.161458 -4.28385,-5.869791 q -0.23698,-0.328125 -0.47396,-0.601563 -0.23698,-0.291666 -0.58334,-0.492187 -0.32812,-0.21875 -0.82031,-0.346354 -0.49219,-0.145834 -1.22135,-0.200521 v -0.783854 h 7.65625 v 0.783854 q -0.56511,0.05469 -0.98438,0.164062 -0.40104,0.09115 -0.61979,0.273438 -0.20052,0.164062 -0.18229,0.455729 0.0365,0.273438 0.36458,0.710938 l 2.9349,4.046874 2.80729,-4.046874 q 0.32812,-0.4375 0.36458,-0.729167 0.0365,-0.291667 -0.16406,-0.455729 -0.18229,-0.182292 -0.58333,-0.273438 -0.40104,-0.09115 -0.96615,-0.145833 v -0.783854 h 6.94531 v 0.783854 q -1.47656,0.109375 -2.29687,0.546875 -0.80208,0.419271 -1.27604,1.09375 l -3.82813,5.377604 4.86719,6.653645 q 0.21875,0.27344 0.47396,0.54688 0.25521,0.2552 0.58333,0.49218 0.34636,0.23698 0.80208,0.41927 0.45573,0.1823 1.0573,0.25521 v 0.78386 z" />
      <path
         id="path857"
         style="text-align:center;text-anchor:middle"
         d="m 146.53516,108.44206 v -0.78386 q 0.45573,-0.0365 0.85677,-0.10937 0.40104,-0.0729 0.61979,-0.23698 0.23698,-0.16406 0.23698,-0.45573 0,-0.3099 -0.36458,-0.80208 l -3.60938,-4.90365 -3.44531,4.90365 q -0.34635,0.49218 -0.27344,0.80208 0.0729,0.29167 0.38282,0.45573 0.30989,0.16406 0.76562,0.23698 0.47396,0.0729 0.91146,0.10937 v 0.78386 h -6.90885 v -0.78386 q 0.72916,-0.10937 1.23958,-0.27344 0.51042,-0.18229 0.85677,-0.40104 0.36458,-0.23698 0.60156,-0.49218 0.25521,-0.27344 0.45573,-0.54688 l 4.42969,-6.161458 -4.28385,-5.869791 q -0.23698,-0.328125 -0.47396,-0.601563 -0.23698,-0.291666 -0.58334,-0.492187 -0.32812,-0.21875 -0.82031,-0.346354 -0.49219,-0.145834 -1.22135,-0.200521 v -0.783854 h 7.65625 v 0.783854 q -0.56511,0.05469 -0.98438,0.164062 -0.40104,0.09115 -0.61979,0.273438 -0.20052,0.164062 -0.18229,0.455729 0.0365,0.273438 0.36458,0.710938 l 2.9349,4.046874 2.80729,-4.046874 q 0.32812,-0.4375 0.36458,-0.729167 0.0365,-0.291667 -0.16406,-0.455729 -0.18229,-0.182292 -0.58333,-0.273438 -0.40104,-0.09115 -0.96615,-0.145833 v -0.783854 h 6.94531 v 0.783854 q -1.47656,0.109375 -2.29687,0.546875 -0.80208,0.419271 -1.27604,1.09375 l -3.82813,5.377604 4.86719,6.653645 q 0.21875,0.27344 0.47396,0.54688 0.25521,0.2552 0.58333,0.49218 0.34636,0.23698 0.80208,0.41927 0.45573,0.1823 1.0573,0.25521 v 0.78386 z" />
      <path
         id="path859"
         style="text-align:center;text-anchor:middle"
         d="m 165.34766,108.44206 v -0.78386 q 0.45573,-0.0365 0.85677,-0.10937 0.40104,-0.0729 0.61979,-0.23698 0.23698,-0.16406 0.23698,-0.45573 0,-0.3099 -0.36458,-0.80208 l -3.60938,-4.90365 -3.44531,4.90365 q -0.34635,0.49218 -0.27344,0.80208 0.0729,0.29167 0.38282,0.45573 0.30989,0.16406 0.76562,0.23698 0.47396,0.0729 0.91146,0.10937 v 0.78386 h -6.90885 v -0.78386 q 0.72916,-0.10937 1.23958,-0.27344 0.51042,-0.18229 0.85677,-0.40104 0.36458,-0.23698 0.60156,-0.49218 0.25521,-0.27344 0.45573,-0.54688 l 4.42969,-6.161458 -4.28385,-5.869791 q -0.23698,-0.328125 -0.47396,-0.601563 -0.23698,-0.291666 -0.58334,-0.492187 -0.32812,-0.21875 -0.82031,-0.346354 -0.49219,-0.145834 -1.22135,-0.200521 v -0.783854 h 7.65625 v 0.783854 q -0.56511,0.05469 -0.98438,0.164062 -0.40104,0.09115 -0.61979,0.273438 -0.20052,0.164062 -0.18229,0.455729 0.0365,0.273438 0.36458,0.710938 l 2.9349,4.046874 2.80729,-4.046874 q 0.32812,-0.4375 0.36458,-0.729167 0.0365,-0.291667 -0.16406,-0.455729 -0.18229,-0.182292 -0.58333,-0.273438 -0.40104,-0.09115 -0.96615,-0.145833 v -0.783854 h 6.94531 v 0.783854 q -1.47656,0.109375 -2.29687,0.546875 -0.80208,0.419271 -1.27604,1.09375 l -3.82813,5.377604 4.86719,6.653645 q 0.21875,0.27344 0.47396,0.54688 0.25521,0.2552 0.58333,0.49218 0.34636,0.23698 0.80208,0.41927 0.45573,0.1823 1.0573,0.25521 v 0.78386 z" />
      <path
         id="path861"
         style="text-align:center;text-anchor:middle"
         d="m 184.16015,108.44206 v -0.78386 q 0.45573,-0.0365 0.85677,-0.10937 0.40105,-0.0729 0.6198,-0.23698 0.23698,-0.16406 0.23698,-0.45573 0,-0.3099 -0.36459,-0.80208 l -3.60937,-4.90365 -3.44532,4.90365 q -0.34635,0.49218 -0.27343,0.80208 0.0729,0.29167 0.38281,0.45573 0.3099,0.16406 0.76562,0.23698 0.47396,0.0729 0.91146,0.10937 v 0.78386 h -6.90885 v -0.78386 q 0.72917,-0.10937 1.23958,-0.27344 0.51042,-0.18229 0.85677,-0.40104 0.36459,-0.23698 0.60157,-0.49218 0.2552,-0.27344 0.45572,-0.54688 l 4.42969,-6.161458 -4.28385,-5.869791 q -0.23698,-0.328125 -0.47396,-0.601563 -0.23698,-0.291666 -0.58333,-0.492187 -0.32813,-0.21875 -0.82032,-0.346354 -0.49218,-0.145834 -1.22135,-0.200521 v -0.783854 h 7.65625 v 0.783854 q -0.5651,0.05469 -0.98438,0.164062 -0.40104,0.09115 -0.61979,0.273438 -0.20052,0.164062 -0.18229,0.455729 0.0365,0.273438 0.36458,0.710938 l 2.9349,4.046874 2.80729,-4.046874 q 0.32813,-0.4375 0.36459,-0.729167 0.0364,-0.291667 -0.16407,-0.455729 -0.18229,-0.182292 -0.58333,-0.273438 -0.40104,-0.09115 -0.96615,-0.145833 v -0.783854 h 6.94532 v 0.783854 q -1.47657,0.109375 -2.29688,0.546875 -0.80208,0.419271 -1.27604,1.09375 l -3.82813,5.377604 4.86719,6.653645 q 0.21875,0.27344 0.47396,0.54688 0.25521,0.2552 0.58333,0.49218 0.34636,0.23698 0.80209,0.41927 0.45573,0.1823 1.05729,0.25521 v 0.78386 z" />
    </g>
    <g
       id="text905"
       style="font-style:normal;font-variant:normal;font-weight:normal;font-stretch:normal;font-size:9.87777805px;line-height:1.25;font-family:'Gentium Plus';-inkscape-font-specification:'Gentium Plus';letter-spacing:0px;word-spacing:0px;fill:#000000;fill-opacity:1;stroke:none;stroke-width:0.26458332"
       aria-label="216">
      <path
         id="path864"
         style="stroke-width:0.26458332"
         d="m 106.06749,291.06674 h -3.34726 l -0.13987,-0.35691 q 0.57396,-0.66559 0.99839,-1.17684 0.42926,-0.51126 0.73312,-0.90193 0.30386,-0.3955 0.5016,-0.68971 0.19775,-0.29903 0.31351,-0.53054 0.11575,-0.23634 0.15916,-0.42444 0.0434,-0.19292 0.0434,-0.3762 0,-0.22187 -0.053,-0.41479 -0.0531,-0.19775 -0.16881,-0.34245 -0.11576,-0.14469 -0.30386,-0.22668 -0.18328,-0.082 -0.44373,-0.082 -0.19775,0 -0.36656,0.0965 -0.16398,0.0965 -0.28456,0.24598 -0.11576,0.14469 -0.18328,0.32797 -0.0675,0.17846 -0.0675,0.34726 -0.082,0.0434 -0.14951,0.082 -0.0627,0.0386 -0.13023,0.0723 -0.0675,0.0289 -0.14951,0.0531 -0.0772,0.0193 -0.18811,0.0289 l -0.13022,-0.1447 q 0,-0.2508 0.16881,-0.52089 0.16881,-0.27492 0.44855,-0.50161 0.27974,-0.22669 0.63183,-0.37138 0.35691,-0.14952 0.72829,-0.14952 0.28939,0 0.54019,0.082 0.25563,0.082 0.44373,0.25081 0.1881,0.16398 0.29421,0.42443 0.11094,0.25563 0.11094,0.60772 0,0.21704 -0.0627,0.43408 -0.0627,0.21704 -0.19774,0.47267 -0.13023,0.2508 -0.34245,0.54983 -0.20739,0.29904 -0.50643,0.67524 -0.29903,0.37139 -0.69453,0.83441 -0.39067,0.46302 -0.88263,1.04179 h 2.01607 q 0.082,0 0.14469,-0.0338 0.0675,-0.0386 0.11576,-0.0965 0.053,-0.0627 0.0868,-0.13987 0.0386,-0.0772 0.0627,-0.15917 0.0579,-0.1881 0.082,-0.42926 l 0.24116,0.0579 z" />
      <path
         id="path866"
         style="font-size:64.99999762%;baseline-shift:super"
         d="m 107.27086,287.11563 v -0.16616 q 0.24453,-0.0282 0.40756,-0.0627 0.16302,-0.0376 0.2602,-0.0752 0.0972,-0.0376 0.13795,-0.0721 0.0408,-0.0376 0.0408,-0.0721 v -2.49862 q 0,-0.12541 -0.009,-0.19438 -0.009,-0.069 -0.047,-0.11286 -0.0188,-0.0188 -0.0721,-0.0314 -0.0533,-0.0125 -0.15048,-0.009 -0.0972,0.003 -0.24453,0.0219 -0.14735,0.0188 -0.35426,0.0627 l -0.0658,-0.15988 q 0.13167,-0.0376 0.31036,-0.10346 0.18184,-0.0658 0.3668,-0.14108 0.18497,-0.0784 0.35113,-0.15361 0.16615,-0.0784 0.26961,-0.13481 l 0.116,0.10973 v 3.34508 q 0,0.0313 0.0345,0.069 0.0345,0.0345 0.12227,0.0721 0.0878,0.0376 0.23826,0.0752 0.15362,0.0376 0.38875,0.0658 v 0.16616 z" />
      <path
         id="path868"
         style="font-size:64.99999762%;baseline-shift:super"
         d="m 111.31506,285.04651 q -0.15989,0 -0.35426,0.0909 -0.19124,0.0878 -0.3668,0.29783 0,0.37307 0.0596,0.64582 0.0627,0.26961 0.17556,0.44831 0.11286,0.1787 0.27275,0.26648 0.15988,0.0846 0.35426,0.0846 0.16929,0 0.27901,-0.0784 0.11287,-0.0815 0.1787,-0.20378 0.069,-0.1254 0.0972,-0.27588 0.0282,-0.15362 0.0282,-0.29783 0,-0.2947 -0.0721,-0.4828 -0.069,-0.19124 -0.17557,-0.30096 -0.10659,-0.10973 -0.23512,-0.15048 -0.1254,-0.0439 -0.2414,-0.0439 z m 1.19445,0.77749 q 0,0.14734 -0.0345,0.30723 -0.0314,0.15989 -0.10032,0.3135 -0.0658,0.15362 -0.16616,0.29156 -0.0972,0.13794 -0.22885,0.24453 -0.12854,0.10346 -0.29156,0.16616 -0.16302,0.0627 -0.35426,0.0627 -0.25707,0 -0.4828,-0.11286 -0.22572,-0.116 -0.39501,-0.32291 -0.16929,-0.20691 -0.26648,-0.49533 -0.0972,-0.29156 -0.0972,-0.64582 0,-0.44204 0.12541,-0.84646 0.12853,-0.40756 0.39188,-0.7336 0.26334,-0.32604 0.66149,-0.54863 0.40128,-0.22572 0.94678,-0.3041 l 0.0596,0.18497 q -0.36994,0.0846 -0.65836,0.25707 -0.28529,0.16929 -0.4922,0.39501 -0.20378,0.22573 -0.33232,0.49534 -0.1254,0.26648 -0.17242,0.5455 0.10972,-0.10659 0.22258,-0.1787 0.116,-0.0721 0.22259,-0.116 0.10973,-0.0439 0.20691,-0.0627 0.0972,-0.0188 0.1693,-0.0188 0.25393,0 0.45144,0.0784 0.19751,0.0784 0.33231,0.22572 0.13795,0.14421 0.21005,0.35426 0.0721,0.20691 0.0721,0.46399 z" />
    </g>
  </g>
</svg>
