<?xml version="1.0" encoding="UTF-8" standalone="no"?>
<!-- Created with Inkscape (http://www.inkscape.org/) -->

<svg
   xmlns:dc="http://purl.org/dc/elements/1.1/"
   xmlns:cc="http://creativecommons.org/ns#"
   xmlns:rdf="http://www.w3.org/1999/02/22-rdf-syntax-ns#"
   xmlns:svg="http://www.w3.org/2000/svg"
   xmlns="http://www.w3.org/2000/svg"
   xmlns:sodipodi="http://sodipodi.sourceforge.net/DTD/sodipodi-0.dtd"
   xmlns:inkscape="http://www.inkscape.org/namespaces/inkscape"
   width="320"
   height="330"
   viewBox="0 0 84.666656 87.312502"
   version="1.1"
   id="svg8"
   inkscape:version="0.92.3 (2405546, 2018-03-11)"
   sodipodi:docname="reiwa.svg">
  <defs
     id="defs2" />
  <sodipodi:namedview
     id="base"
     pagecolor="#ffffff"
     bordercolor="#666666"
     borderopacity="1.0"
     inkscape:pageopacity="0.0"
     inkscape:pageshadow="2"
     inkscape:zoom="0.98994949"
     inkscape:cx="426.9914"
     inkscape:cy="176.56891"
     inkscape:document-units="px"
     inkscape:current-layer="layer1"
     showgrid="false"
     units="px"
     inkscape:window-width="1920"
     inkscape:window-height="1017"
     inkscape:window-x="0"
     inkscape:window-y="34"
     inkscape:window-maximized="1" />
  <metadata
     id="metadata5">
    <rdf:RDF>
      <cc:Work
         rdf:about="">
        <dc:format>image/svg+xml</dc:format>
        <dc:type
           rdf:resource="http://purl.org/dc/dcmitype/StillImage" />
        <dc:title></dc:title>
      </cc:Work>
    </rdf:RDF>
  </metadata>
  <g
     inkscape:label="Layer 1"
     inkscape:groupmode="layer"
     id="layer1"
     transform="translate(0,-209.68749)">
    <path
       style="fill:#000000;stroke-width:0.35277778"
       d="m 16.196035,275.42992 0.01864,-18.47811 -6.4998411,-0.0958 C 3.328886,256.76191 3.2113,256.7464 3.004273,255.97406 2.888378,255.5417 2.791387,255.06889 2.788737,254.92337 c -0.0026,-0.14552 6.2585369,-0.26458 13.913746,-0.26458 h 13.91857 l 1.19668,-1.56726 1.19669,-1.56725 3.40558,2.47915 c 1.87307,1.36353 3.40559,2.60031 3.40559,2.7484 0,0.24674 -1.76725,1.09709 -3.2632,1.57015 -0.57077,0.18049 -0.61736,1.03413 -0.61736,11.31165 0,12.81542 -0.0984,13.37589 -2.5999,14.80535 -0.80137,0.45795 -2.05236,0.93694 -2.77996,1.06443 -1.2886,0.22578 -1.32292,0.20407 -1.32292,-0.83696 0,-1.80644 -1.54897,-3.14532 -4.16313,-3.5985 -1.74969,-0.30331 -2.19943,-0.50805 -2.1128,-0.96183 0.0918,-0.48102 0.78137,-0.60571 4.16314,-0.75289 l 4.05307,-0.17639 0.0932,-11.20069 0.0931,-11.20069 h -5.12023 -5.12024 v 17.7606 c 0,20.27916 0.23254,18.87392 -3.17746,19.20158 l -1.773499,0.17041 0.01863,-18.4781 z m 35.891518,-1.45658 -0.0911,-19.84375 -1.00857,3.175 c -0.55472,1.74625 -1.63911,4.7625 -2.40975,6.70278 -1.47077,3.70301 -5.52463,11.82607 -5.89227,11.80684 -0.11792,-0.006 -0.51074,-0.23566 -0.87294,-0.50997 -0.63221,-0.47882 -0.59473,-0.65114 0.9374,-4.31031 1.92543,-4.59846 3.4503,-9.31355 4.99764,-15.45323 1.2473,-4.94918 2.85211,-13.15564 2.61835,-13.3894 -0.079,-0.079 -1.96814,-0.18016 -4.19802,-0.22472 -4.65888,-0.0931 -5.20666,0.11114 -6.41691,2.39248 l -0.79177,1.4925 -0.83797,-0.77987 c -1.44706,-1.34672 -5.03315,-5.94297 -7.21435,-9.24654 -2.31695,-3.50918 -6.43426,-11.77917 -7.64009,-15.34584 -0.42638,-1.26118 -0.85649,-2.53118 -0.95578,-2.82222 -0.10313,-0.30228 -0.67399,0.6809 -1.3314,2.29306 -2.37145,5.81549 -5.932723,12.1524 -9.280895,16.51439 -2.6095541,3.39973 -6.256242,7.44152 -7.860346,8.712 -1.328668,1.05232 -1.508565,1.10578 -2.015417,0.59893 -0.506852,-0.50685 -0.416046,-0.71278 1.017313,-2.30702 5.0493129,-5.61605 11.207444,-17.66866 13.908975,-27.22247 0.52122,-1.84326 0.96947,-3.38171 0.9961,-3.41877 0.10024,-0.13948 8.07062,1.63915 8.27896,1.84749 0.30919,0.30919 -1.02565,1.2185 -1.78874,1.2185 -0.35097,0 -0.63813,0.0951 -0.63813,0.21126 0,0.42536 3.16691,6.46559 4.44473,8.47741 1.67981,2.64472 3.98757,5.69839 6.47232,8.56429 2.40479,2.77367 7.54149,7.27559 7.71332,6.76012 0.0811,-0.24336 1.8657,-0.37697 5.03514,-0.37697 h 4.90949 v -8.76064 c 0,-4.81836 -0.0785,-8.83918 -0.1745,-8.93515 -0.096,-0.096 -1.77406,0.18504 -3.72909,0.62449 -1.95502,0.43944 -4.39394,0.90385 -5.4198,1.03203 -1.71153,0.21384 -1.88163,0.1703 -2.06436,-0.52848 -0.11462,-0.43832 -0.0236,-0.80746 0.21444,-0.86976 2.41727,-0.63267 10.51126,-3.92621 14.03235,-5.70994 2.4456,-1.2389 4.56233,-2.25255 4.70385,-2.25255 0.43562,0 5.48989,4.30612 5.48989,4.67726 0,0.20909 -0.81122,0.28173 -2.02362,0.18119 -1.54204,-0.12788 -2.63343,0.0372 -4.58611,0.69375 l -2.56249,0.86156 v 9.49312 9.49312 h 0.83813 c 0.61045,0 1.16148,-0.47668 2.02847,-1.75479 0.65469,-0.96513 1.32658,-1.75888 1.4931,-1.76389 0.16651,-0.005 1.31745,0.79833 2.55764,1.78517 l 2.25488,1.79427 v -9.41137 -9.41136 l 2.3052,1.2671 c 2.09857,1.15352 2.55559,1.2671 5.09865,1.2671 h 2.79346 l 1.1195,-1.39307 1.11949,-1.39306 2.80206,2.13303 c 1.54114,1.17317 2.7364,2.19871 2.65612,2.27898 -0.0803,0.0803 -0.72885,0.42948 -1.44129,0.77602 l -1.29534,0.63006 -0.0824,30.48453 -0.0824,30.48452 -1.22069,0.82264 c -0.67138,0.45246 -1.5445,0.7763 -1.94028,0.71964 -0.65124,-0.0932 -0.72389,-0.37108 -0.76485,-2.92524 l -0.0452,-2.82222 h -3.48252 -3.48252 l -0.0927,3.70417 c -0.10495,4.19396 -0.52253,4.93889 -2.76862,4.93889 h -1.19564 V 266.06936 240.4383 l -0.73762,0.66753 c -0.60553,0.548 -1.42673,0.69112 -4.58611,0.79925 l -3.84849,0.13173 0.002,4.45889 0.002,4.45889 1.25365,0.85385 c 1.93582,1.31847 4.4002,4.23473 5.38604,6.37365 1.61875,3.51215 0.95652,7.06 -1.31779,7.06 -1.33883,0 -1.6587,-0.48942 -1.93651,-2.96296 -0.23205,-2.06609 -1.85188,-6.63941 -2.86283,-8.08275 -0.47084,-0.67205 -0.5275,1.3374 -0.5275,18.70272 v 19.45567 l -0.92952,0.73116 c -0.51124,0.40214 -1.38304,0.73116 -1.93734,0.73116 h -1.00782 z m 24.08432,-20.90208 v -27.51667 l -3.53287,-0.10053 -3.53286,-0.10054 v 27.71774 27.71774 l 3.53286,-0.10054 3.53287,-0.10053 z m -65.979624,-9.49615 c 0,-0.27517 -0.09636,-0.75142 -0.2141321,-1.05833 -0.190978,-0.49768 0.5694241,-0.55802 7.0321461,-0.55802 h 7.24628 l 1.66295,-2.11667 c 0.91462,-1.16416 1.73389,-2.11666 1.82059,-2.11666 0.12412,0 5.6979,3.89602 6.44106,4.50224 0.097,0.0791 -0.26903,0.52726 -0.81342,0.99582 l -0.98982,0.85194 h -11.09283 c -9.340784,0 -11.092824,-0.079 -11.092824,-0.50032 z"
       id="path826"
       inkscape:connector-curvature="0" />
  </g>
</svg>
